<svg width="28" height="28" viewBox="0 0 28 28" fill="none" xmlns="http://www.w3.org/2000/svg">
<path d="M20.6907 12.7464C22.2759 12.5236 23.4964 11.1645 23.4998 9.51795C23.4998 7.89523 22.3168 6.54977 20.7657 6.29523" stroke="white" stroke-width="1.5" stroke-linecap="round" stroke-linejoin="round"/>
<path d="M22.7825 16.5573C24.3178 16.7868 25.3893 17.3243 25.3893 18.4323C25.3893 19.1948 24.8848 19.6902 24.0689 20.0016" stroke="white" stroke-width="1.5" stroke-linecap="round" stroke-linejoin="round"/>
<path fill-rule="evenodd" clip-rule="evenodd" d="M13.8714 17.0272C10.2191 17.0272 7.09979 17.5806 7.09979 19.7908C7.09979 21.9999 10.1998 22.5692 13.8714 22.5692C17.5237 22.5692 20.6418 22.0215 20.6418 19.8101C20.6418 17.5988 17.543 17.0272 13.8714 17.0272Z" stroke="white" stroke-width="1.5" stroke-linecap="round" stroke-linejoin="round"/>
<path fill-rule="evenodd" clip-rule="evenodd" d="M13.8714 13.8727C16.2679 13.8727 18.2111 11.9307 18.2111 9.53295C18.2111 7.13636 16.2679 5.19318 13.8714 5.19318C11.4748 5.19318 9.53159 7.13636 9.53159 9.53295C9.5225 11.9216 11.4509 13.8648 13.8395 13.8727H13.8714Z" stroke="white" stroke-width="1.5" stroke-linecap="round" stroke-linejoin="round"/>
<path d="M7.05103 12.7464C5.46467 12.5236 4.24535 11.1645 4.24194 9.51795C4.24194 7.89523 5.4249 6.54977 6.97603 6.29523" stroke="white" stroke-width="1.5" stroke-linecap="round" stroke-linejoin="round"/>
<path d="M4.95911 16.5573C3.42389 16.7868 2.35229 17.3243 2.35229 18.4323C2.35229 19.1948 2.85684 19.6902 3.67275 20.0016" stroke="white" stroke-width="1.5" stroke-linecap="round" stroke-linejoin="round"/>
</svg>
