<svg width="52" height="52" viewBox="0 0 52 52" fill="none" xmlns="http://www.w3.org/2000/svg">
<g clip-path="url(#clip0_5_25)">
<path d="M46.7188 31.4031C50.2215 27.3406 51.9639 23.2781 52 19.6117C52.0722 12.9594 46.6375 7.60703 36.7069 5.90078C25.0882 3.9 10.6618 7.475 0 14.2695C4.69444 11.5781 9.98472 9.37422 15.4104 8.35859C22.1361 6.27656 29.2229 5.7789 35.3889 6.85547C49.1563 9.27265 53.1556 19.8047 44.3083 30.3875C43.3875 31.4844 42.3222 32.5305 41.1486 33.4953L27.5257 10.5016L10.3549 39.4977C4.43264 36.5117 3.44861 30.3367 8.63056 24.1414C10.5083 21.8867 12.991 19.8859 15.8076 18.2406C17.6132 17.0016 19.3917 15.9453 21.4049 15.1227C15.5278 17.1844 10.3278 20.4953 6.81597 24.5578C4.31528 27.4625 3.07847 30.357 3.05139 32.9773C3.00625 36.5422 5.16389 39.5891 9.22639 41.407L6.11181 46.6578H15.284L17.2701 43.1641C19.2743 43.2656 21.3597 43.1641 23.4632 42.8898L21.4049 46.6578H33.6375L30.6944 41.2648C32.3736 40.7266 34.0257 40.0969 35.6146 39.3656L39.7583 46.6578H48.9306L42.3042 35.4453C43.9743 34.2164 45.4639 32.8555 46.7188 31.4031ZM29.7826 39.5789L27.5257 35.4555L24.5736 40.8687C22.4611 41.2242 20.3576 41.3867 18.3264 41.3156L27.5257 25.1367L34.6306 37.6289C33.0778 38.3805 31.4438 39.0406 29.7826 39.5789Z" fill="white"/>
</g>
<defs>
<clipPath id="clip0_5_25">
<rect width="52" height="52" fill="white"/>
</clipPath>
</defs>
</svg>
