<svg width="15" height="15" viewBox="0 0 15 15" fill="none" xmlns="http://www.w3.org/2000/svg">
<mask id="mask0_6_77" style="mask-type:luminance" maskUnits="userSpaceOnUse" x="0" y="0" width="15" height="15">
<path fill-rule="evenodd" clip-rule="evenodd" d="M0.666656 0.376434H14.9953V14.7056H0.666656V0.376434Z" fill="white"/>
</mask>
<g mask="url(#mask0_6_77)">
<path fill-rule="evenodd" clip-rule="evenodd" d="M4.07225 12.8264C4.45892 12.8264 4.82358 12.9731 5.20958 13.1284C7.57425 14.2218 10.3709 13.7244 12.1929 11.9031C14.5969 9.49777 14.5969 5.5851 12.1929 3.1811C11.0289 2.0171 9.48092 1.37643 7.83292 1.37643C6.18425 1.37643 4.63558 2.01777 3.47225 3.18177C1.64958 5.0031 1.15358 7.79977 2.23692 10.1418C2.39292 10.5278 2.54358 10.9038 2.54358 11.2944C2.54358 11.6844 2.40958 12.0771 2.29158 12.4238C2.19425 12.7091 2.04692 13.1398 2.14158 13.2344C2.23425 13.3304 2.66758 13.1791 2.95358 13.0811C3.29692 12.9638 3.68625 12.8291 4.07225 12.8264ZM7.81625 14.7058C6.79758 14.7058 5.77225 14.4904 4.81292 14.0464C4.53025 13.9331 4.26558 13.8264 4.07558 13.8264C3.85692 13.8278 3.56292 13.9291 3.27892 14.0271C2.69625 14.2271 1.97092 14.4764 1.43425 13.9418C0.899584 13.4064 1.14625 12.6831 1.34492 12.1011C1.44292 11.8144 1.54358 11.5184 1.54358 11.2944C1.54358 11.1104 1.45492 10.8758 1.31892 10.5378C0.0702508 7.8411 0.647584 4.5911 2.76558 2.47443C4.11758 1.12177 5.91692 0.376434 7.83225 0.376434C9.74758 0.376434 11.5476 1.1211 12.8996 2.47377C15.6943 5.26843 15.6943 9.8151 12.8996 12.6098C11.5296 13.9804 9.68492 14.7058 7.81625 14.7058Z" fill="#615D69"/>
</g>
<path fill-rule="evenodd" clip-rule="evenodd" d="M10.4642 8.4849C10.0962 8.4849 9.79486 8.1869 9.79486 7.81823C9.79486 7.44957 10.0902 7.15157 10.4582 7.15157H10.4642C10.8322 7.15157 11.1309 7.44957 11.1309 7.81823C11.1309 8.1869 10.8322 8.4849 10.4642 8.4849Z" fill="#615D69"/>
<path fill-rule="evenodd" clip-rule="evenodd" d="M7.79165 8.4849C7.42365 8.4849 7.12231 8.1869 7.12231 7.81823C7.12231 7.44957 7.41698 7.15157 7.78565 7.15157H7.79165C8.15965 7.15157 8.45831 7.44957 8.45831 7.81823C8.45831 8.1869 8.15965 8.4849 7.79165 8.4849Z" fill="#615D69"/>
<path fill-rule="evenodd" clip-rule="evenodd" d="M5.11886 8.4849C4.75086 8.4849 4.44952 8.1869 4.44952 7.81823C4.44952 7.44957 4.74486 7.15157 5.11286 7.15157H5.11886C5.48686 7.15157 5.78552 7.44957 5.78552 7.81823C5.78552 8.1869 5.48686 8.4849 5.11886 8.4849Z" fill="#615D69"/>
</svg>
