<svg width="29" height="30" viewBox="0 0 29 30" fill="none" xmlns="http://www.w3.org/2000/svg">
<g clip-path="url(#clip0_4_7)">
<path d="M27.667 15C27.667 6.97266 21.6116 0.46875 14.1379 0.46875C6.66413 0.46875 0.608765 6.97266 0.608765 15C0.608765 22.2527 5.55616 28.2645 12.0239 29.3555V19.2006H8.58711V15H12.0239V11.7984C12.0239 8.15684 14.0424 6.14531 17.1339 6.14531C18.6145 6.14531 20.1627 6.42891 20.1627 6.42891V10.0031H18.4563C16.776 10.0031 16.2518 11.1234 16.2518 12.2725V15H20.0039L19.4038 19.2006H16.2518V29.3555C22.7196 28.2645 27.667 22.2527 27.667 15Z" fill="black"/>
</g>
<defs>
<clipPath id="clip0_4_7">
<rect x="0.172363" width="27.931" height="30" rx="13.9655" fill="white"/>
</clipPath>
</defs>
</svg>
