<svg width="24" height="25" viewBox="0 0 24 25" fill="none" xmlns="http://www.w3.org/2000/svg">
<path d="M9.15722 21.3968V18.3301C9.1572 17.55 9.79312 16.9162 10.581 16.911H13.4671C14.2587 16.911 14.9005 17.5463 14.9005 18.3301V18.3301V21.4063C14.9003 22.0686 15.4343 22.6099 16.103 22.6254H18.0271C19.9451 22.6254 21.5 21.0861 21.5 19.1872V19.1872V10.4632C21.4898 9.71622 21.1355 9.01475 20.538 8.55843L13.9577 3.3107C12.8049 2.39696 11.1662 2.39696 10.0134 3.3107L3.46203 8.56795C2.86226 9.02242 2.50739 9.72506 2.5 10.4728V19.1872C2.5 21.0861 4.05488 22.6254 5.97291 22.6254H7.89696C8.58235 22.6254 9.13797 22.0753 9.13797 21.3968V21.3968" stroke="white" stroke-width="1.5" stroke-linecap="round" stroke-linejoin="round"/>
</svg>
