<svg width="16" height="17" viewBox="0 0 16 17" fill="none" xmlns="http://www.w3.org/2000/svg">
<path d="M9.99963 5.70926L4.79289 11.0025C4.60536 11.19 4.5 11.4443 4.5 11.7096C4.5 11.9748 4.60536 12.2291 4.79289 12.4167C4.98043 12.6042 5.23478 12.7096 5.5 12.7096C5.76522 12.7096 6.01957 12.6042 6.20711 12.4167L12.4138 6.12347C12.5996 5.93776 12.7469 5.71728 12.8474 5.47463C12.9479 5.23197 12.9996 4.9719 12.9996 4.70926C12.9996 4.44662 12.9479 4.18654 12.8474 3.94389C12.7469 3.70124 12.5996 3.48076 12.4138 3.29505C12.2281 3.10933 12.0077 2.96201 11.765 2.8615C11.5224 2.76099 11.2623 2.70926 10.9996 2.70926C10.737 2.70926 10.4769 2.76099 10.2343 2.8615C9.99162 2.96201 9.77114 3.10933 9.58542 3.29505L3.37868 9.58824C2.81607 10.1509 2.5 10.9139 2.5 11.7096C2.5 12.5052 2.81607 13.2683 3.37868 13.8309C3.94129 14.3935 4.70435 14.7096 5.5 14.7096C6.29565 14.7096 7.05871 14.3935 7.62132 13.8309L12.7496 8.70926" stroke="#615D69" stroke-linecap="round" stroke-linejoin="round"/>
</svg>
