<svg width="24" height="25" viewBox="0 0 24 25" fill="none" xmlns="http://www.w3.org/2000/svg">
<path fill-rule="evenodd" clip-rule="evenodd" d="M20.8067 8.24897L20.1842 7.16888C19.6577 6.25495 18.4907 5.93967 17.5755 6.46407V6.46407C17.1399 6.7207 16.6201 6.79351 16.1307 6.66644C15.6413 6.53937 15.2226 6.22287 14.9668 5.78672C14.8023 5.5095 14.7139 5.19375 14.7105 4.87139V4.87139C14.7254 4.35457 14.5304 3.85375 14.17 3.48302C13.8096 3.11229 13.3145 2.90322 12.7975 2.90343H11.5435C11.037 2.90342 10.5513 3.10527 10.194 3.4643C9.83669 3.82333 9.63717 4.30995 9.63961 4.81647V4.81647C9.6246 5.86228 8.77248 6.70216 7.72657 6.70206C7.40421 6.69871 7.08846 6.6103 6.81123 6.44576V6.44576C5.89606 5.92137 4.72911 6.23665 4.20254 7.15057L3.53435 8.24897C3.00841 9.16175 3.3194 10.328 4.23 10.8577V10.8577C4.8219 11.1994 5.18653 11.8309 5.18653 12.5144C5.18653 13.1979 4.8219 13.8294 4.23 14.1712V14.1712C3.32056 14.6973 3.00923 15.8607 3.53435 16.7707V16.7707L4.16593 17.86C4.41265 18.3051 4.8266 18.6336 5.31619 18.7728C5.80578 18.9119 6.33064 18.8502 6.77462 18.6014V18.6014C7.21108 18.3467 7.73119 18.2769 8.21934 18.4075C8.70749 18.5382 9.12324 18.8584 9.37416 19.297C9.5387 19.5742 9.62711 19.89 9.63046 20.2124V20.2124C9.63046 21.2689 10.487 22.1254 11.5435 22.1254H12.7975C13.8505 22.1254 14.7055 21.2745 14.7105 20.2215V20.2215C14.7081 19.7134 14.9089 19.2254 15.2682 18.8661C15.6275 18.5068 16.1155 18.306 16.6236 18.3085C16.9452 18.3171 17.2596 18.4051 17.5389 18.5648V18.5648C18.4517 19.0907 19.6179 18.7797 20.1476 17.8691V17.8691L20.8067 16.7707C21.0618 16.3329 21.1318 15.8114 21.0012 15.3217C20.8706 14.8321 20.5502 14.4147 20.111 14.162V14.162C19.6718 13.9093 19.3514 13.4919 19.2208 13.0023C19.0902 12.5127 19.1603 11.9912 19.4154 11.5533C19.5812 11.2637 19.8214 11.0236 20.111 10.8577V10.8577C21.0161 10.3282 21.3264 9.16885 20.8067 8.25812V8.25812V8.24897Z" stroke="white" stroke-width="1.5" stroke-linecap="round" stroke-linejoin="round"/>
<circle cx="12.1751" cy="12.5144" r="2.63616" stroke="white" stroke-width="1.5" stroke-linecap="round" stroke-linejoin="round"/>
</svg>
