<!-- <?xml version="1.0" encoding="utf-8"?> -->
<!-- Generated by IcoMoon.io -->
<svg aria-hidden="true" style="position:absolute;width:0;height:0;overflow:hidden"
    xmlns="http://www.w3.org/2000/svg" viewBox="0 0 752 80">
    <defs>
        <symbol id="icon-plus" viewBox="0 0 32 32">
            <path fill="none" stroke-linejoin="round" stroke-linecap="round" stroke-miterlimit="4"
                stroke-width="4" stroke="#000" d="M5 16h22"></path>
            <path fill="none" stroke-linejoin="round" stroke-linecap="round" stroke-miterlimit="4"
                stroke-width="4" stroke="#000" d="M16 5v22"></path>
        </symbol>
        <symbol id="icon-more-horizontal" viewBox="0 0 32 32">
            <path fill="none" stroke-linejoin="round" stroke-linecap="round" stroke-miterlimit="4"
                stroke-width="2.56" stroke="#000"
                d="M15.893 17.548c0.707 0 1.28-0.573 1.28-1.28s-0.573-1.28-1.28-1.28c-0.707 0-1.28 0.573-1.28 1.28s0.573 1.28 1.28 1.28z"></path>
            <path fill="none" stroke-linejoin="round" stroke-linecap="round" stroke-miterlimit="4"
                stroke-width="2.56" stroke="#000"
                d="M24.854 17.548c0.707 0 1.28-0.573 1.28-1.28s-0.573-1.28-1.28-1.28c-0.707 0-1.28 0.573-1.28 1.28s0.573 1.28 1.28 1.28z"></path>
            <path fill="none" stroke-linejoin="round" stroke-linecap="round" stroke-miterlimit="4"
                stroke-width="2.56" stroke="#000"
                d="M6.934 17.548c0.707 0 1.28-0.573 1.28-1.28s-0.573-1.28-1.28-1.28-1.28 0.573-1.28 1.28c0 0.707 0.573 1.28 1.28 1.28z"></path>
        </symbol>
        <symbol id="icon-user" viewBox="0 0 32 32">
            <path fill="none" stroke-linejoin="round" stroke-linecap="round" stroke-miterlimit="4"
                stroke-width="1.7143" stroke="#000"
                d="M23.646 14.567c1.812-0.255 3.207-1.808 3.21-3.69 0-1.855-1.352-3.392-3.125-3.683"></path>
            <path fill="none" stroke-linejoin="round" stroke-linecap="round" stroke-miterlimit="4"
                stroke-width="1.7143" stroke="#000"
                d="M26.037 18.923c1.755 0.262 2.979 0.877 2.979 2.143 0 0.871-0.577 1.438-1.509 1.794"></path>
            <path fill="none" stroke-linejoin="round" stroke-linecap="round" stroke-miterlimit="4"
                stroke-width="1.7143" stroke="#000"
                d="M15.853 19.46c-4.174 0-7.739 0.632-7.739 3.158 0 2.525 3.543 3.175 7.739 3.175 4.174 0 7.738-0.626 7.738-3.153s-3.541-3.18-7.738-3.18z"></path>
            <path fill="none" stroke-linejoin="round" stroke-linecap="round" stroke-miterlimit="4"
                stroke-width="1.7143" stroke="#000"
                d="M15.853 15.854c2.739 0 4.96-2.219 4.96-4.96 0-2.739-2.221-4.96-4.96-4.96s-4.96 2.221-4.96 4.96c-0.010 2.73 2.194 4.951 4.923 4.96h0.036z"></path>
            <path fill="none" stroke-linejoin="round" stroke-linecap="round" stroke-miterlimit="4"
                stroke-width="1.7143" stroke="#000"
                d="M8.058 14.567c-1.813-0.255-3.207-1.808-3.21-3.69 0-1.855 1.352-3.392 3.125-3.683"></path>
            <path fill="none" stroke-linejoin="round" stroke-linecap="round" stroke-miterlimit="4"
                stroke-width="1.7143" stroke="#000"
                d="M5.668 18.923c-1.755 0.262-2.979 0.877-2.979 2.143 0 0.871 0.577 1.438 1.509 1.794"></path>
        </symbol>
        <symbol id="icon-arrow-down" width="32" height="32" viewBox="0 0 32 32" >
            <path fill="none" stroke-linejoin="round" stroke-linecap="round" stroke-miterlimit="4"
                stroke-width="2" stroke="#000" d="M25.333 11.333l-9.333 9.333-9.333-9.333"></path>
        </symbol>
        <symbol id="icon-calendar" width="29" height="32" viewBox="0 0 29 32" >
            <path fill="none" stroke-linejoin="round" stroke-linecap="round" stroke-miterlimit="4"
                stroke-width="2.1818" stroke="#000" d="M1.589 12.224h25.926"></path>
            <path fill="none" stroke-linejoin="round" stroke-linecap="round" stroke-miterlimit="4"
                stroke-width="2.1818" stroke="#000" d="M21.007 17.905h0.014"></path>
            <path fill="none" stroke-linejoin="round" stroke-linecap="round" stroke-miterlimit="4"
                stroke-width="2.1818" stroke="#000" d="M14.552 17.905h0.014"></path>
            <path fill="none" stroke-linejoin="round" stroke-linecap="round" stroke-miterlimit="4"
                stroke-width="2.1818" stroke="#000" d="M8.084 17.905h0.013"></path>
            <path fill="none" stroke-linejoin="round" stroke-linecap="round" stroke-miterlimit="4"
                stroke-width="2.1818" stroke="#000" d="M21.007 23.558h0.014"></path>
            <path fill="none" stroke-linejoin="round" stroke-linecap="round" stroke-miterlimit="4"
                stroke-width="2.1818" stroke="#000" d="M14.552 23.558h0.014"></path>
            <path fill="none" stroke-linejoin="round" stroke-linecap="round" stroke-miterlimit="4"
                stroke-width="2.1818" stroke="#000" d="M8.084 23.558h0.013"></path>
            <path fill="none" stroke-linejoin="round" stroke-linecap="round" stroke-miterlimit="4"
                stroke-width="2.1818" stroke="#000" d="M20.427 1.455v4.787"></path>
            <path fill="none" stroke-linejoin="round" stroke-linecap="round" stroke-miterlimit="4"
                stroke-width="2.1818" stroke="#000" d="M8.677 1.455v4.787"></path>
            <path fill="none" stroke-linejoin="round" stroke-linecap="round" stroke-miterlimit="4"
                stroke-width="2.1818" stroke="#000"
                d="M20.71 3.752h-12.316c-4.272 0-6.94 2.38-6.94 6.753v13.163c0 4.443 2.668 6.877 6.94 6.877h12.303c4.285 0 6.94-2.393 6.94-6.767v-13.273c0.013-4.374-2.641-6.753-6.926-6.753z"></path>
        </symbol>
        <symbol id="icon-chat" viewBox="0 0 32 32">
            <path
                d="M8.687 27.363c0.825 0 1.603 0.313 2.426 0.644 5.045 2.333 11.011 1.271 14.898-2.614 5.129-5.131 5.129-13.478 0-18.607-2.483-2.483-5.786-3.85-9.301-3.85-3.517 0-6.821 1.368-9.303 3.851-3.888 3.886-4.947 9.852-2.635 14.848 0.333 0.823 0.654 1.626 0.654 2.459 0 0.832-0.286 1.67-0.538 2.409-0.208 0.609-0.522 1.527-0.32 1.729 0.198 0.205 1.122-0.118 1.732-0.327 0.732-0.25 1.563-0.538 2.387-0.543zM16.675 31.372c-2.173 0-4.361-0.46-6.407-1.407-0.603-0.242-1.168-0.469-1.573-0.469-0.466 0.003-1.094 0.219-1.7 0.428-1.243 0.427-2.79 0.959-3.935-0.182-1.141-1.142-0.614-2.685-0.191-3.927 0.209-0.612 0.424-1.243 0.424-1.721 0-0.393-0.189-0.893-0.479-1.614-2.664-5.753-1.432-12.686 3.086-17.202 2.884-2.886 6.723-4.476 10.809-4.476s7.926 1.589 10.81 4.474c5.962 5.962 5.962 15.661 0 21.624-2.923 2.924-6.858 4.471-10.844 4.471z"></path>
            <path
                d="M22.324 18.101c-0.785 0-1.428-0.636-1.428-1.422s0.63-1.422 1.415-1.422h0.013c0.785 0 1.422 0.636 1.422 1.422s-0.637 1.422-1.422 1.422z"></path>
            <path
                d="M16.622 18.101c-0.785 0-1.428-0.636-1.428-1.422s0.629-1.422 1.415-1.422h0.013c0.785 0 1.422 0.636 1.422 1.422s-0.637 1.422-1.422 1.422z"></path>
            <path
                d="M10.92 18.101c-0.785 0-1.428-0.636-1.428-1.422s0.63-1.422 1.415-1.422h0.013c0.785 0 1.422 0.636 1.422 1.422s-0.637 1.422-1.422 1.422z"></path>
        </symbol>
        <symbol id="icon-document" viewBox="0 0 31 32">
            <path fill="none" stroke-linejoin="round" stroke-linecap="round" stroke-miterlimit="4"
                stroke-width="1.92" stroke="#000" d="M20.117 21.566h-9.242"></path>
            <path fill="none" stroke-linejoin="round" stroke-linecap="round" stroke-miterlimit="4"
                stroke-width="1.92" stroke="#000" d="M20.117 16.208h-9.242"></path>
            <path fill="none" stroke-linejoin="round" stroke-linecap="round" stroke-miterlimit="4"
                stroke-width="1.92" stroke="#000" d="M14.402 10.861h-3.526"></path>
            <path fill="none" stroke-linejoin="round" stroke-linecap="round" stroke-miterlimit="4"
                stroke-width="1.92" stroke="#000"
                d="M20.363 4.32c0 0-9.827 0.005-9.842 0.005-3.533 0.022-5.72 2.346-5.72 5.892v11.771c0 3.564 2.204 5.897 5.768 5.897 0 0 9.825-0.004 9.842-0.004 3.533-0.022 5.722-2.348 5.722-5.893v-11.771c0-3.564-2.205-5.897-5.769-5.897z"></path>
        </symbol>
        <symbol id="icon-edit" width="32" height="32" viewBox="0 0 32 32" x="336" y="0">
            <path fill="none" stroke-linejoin="round" stroke-linecap="round" stroke-miterlimit="4"
                stroke-width="2.4" stroke="#000" d="M18.33 27.257h9.67"></path>
            <path fill="none" stroke-linejoin="round" stroke-linecap="round" stroke-miterlimit="4"
                stroke-width="2.4" stroke="#000"
                d="M17.040 5.060c1.034-1.236 2.893-1.417 4.155-0.404 0.070 0.055 2.311 1.796 2.311 1.796 1.386 0.838 1.817 2.619 0.96 3.978-0.046 0.073-12.717 15.923-12.717 15.923-0.422 0.526-1.062 0.836-1.745 0.844l-4.853 0.061-1.093-4.628c-0.153-0.651 0-1.334 0.422-1.86l12.56-15.71z"></path>
            <path fill="none" stroke-linejoin="round" stroke-linecap="round" stroke-miterlimit="4"
                stroke-width="2.4" stroke="#000" d="M14.694 8.001l7.27 5.583"></path>
        </symbol>
        <symbol id="icon-filter" width="31" height="32" viewBox="0 0 31 32">
            <path fill="none" stroke-linejoin="round" stroke-linecap="round" stroke-miterlimit="4"
                stroke-width="1.92" stroke="#000" d="M13.223 21.879h-8.065"></path>
            <path fill="none" stroke-linejoin="round" stroke-linecap="round" stroke-miterlimit="4"
                stroke-width="1.92" stroke="#000" d="M16.82 9.473h8.065"></path>
            <path fill="none" stroke-linejoin="round" stroke-linecap="round" stroke-miterlimit="4"
                stroke-width="1.92" stroke="#000"
                d="M11.17 9.403c0-1.658-1.354-3.003-3.025-3.003s-3.025 1.345-3.025 3.003c0 1.658 1.354 3.003 3.025 3.003s3.025-1.345 3.025-3.003z"></path>
            <path fill="none" stroke-linejoin="round" stroke-linecap="round" stroke-miterlimit="4"
                stroke-width="1.92" stroke="#000"
                d="M25.6 21.829c0-1.658-1.353-3.003-3.024-3.003-1.671 0-3.026 1.345-3.026 3.003s1.355 3.003 3.026 3.003c1.67 0 3.024-1.345 3.024-3.003z"></path>
        </symbol>
        <symbol id="icon-home" viewBox="0 0 31 32">
            <path fill="none" stroke-linejoin="round" stroke-linecap="round" stroke-miterlimit="4"
                stroke-width="1.92" stroke="#000"
                d="M11.721 27.388v-3.925c-0-0.999 0.814-1.81 1.822-1.816h3.694c1.013 0 1.835 0.813 1.835 1.816v0 3.938c-0 0.848 0.683 1.541 1.539 1.56h2.463c2.455 0 4.445-1.97 4.445-4.401v0-11.167c-0.013-0.956-0.467-1.854-1.231-2.438l-8.423-6.717c-1.476-1.17-3.573-1.17-5.049 0l-8.386 6.729c-0.768 0.582-1.222 1.481-1.231 2.438v11.154c0 2.431 1.99 4.401 4.445 4.401h2.463c0.877 0 1.588-0.704 1.588-1.573v0"></path>
        </symbol>
        <symbol id="icon-logo" viewBox="0 0 34 32">
            <path
                d="M26.23 16.757c-4.027 0-7.29 3.264-7.29 7.29s3.264 7.291 7.29 7.291c4.026 0 7.29-3.264 7.29-7.291s-3.264-7.29-7.29-7.29zM7.29 16.758c-4.026 0-7.29 3.263-7.29 7.29s3.264 7.29 7.29 7.29c4.026 0 7.29-3.264 7.29-7.29s-3.264-7.29-7.29-7.29zM24.050 7.645c0 4.026-3.264 7.291-7.29 7.291s-7.29-3.265-7.29-7.291c0-4.026 3.264-7.29 7.29-7.29s7.289 3.264 7.289 7.29h0z"></path>
        </symbol>
        <symbol id="icon-logout" viewBox="0 0 32 32">
            <path
                d="M15.092 29.333h-6.515c-3.259 0-5.911-2.652-5.911-5.913v-14.839c0-3.261 2.652-5.915 5.911-5.915h6.5c3.261 0 5.915 2.653 5.915 5.915v1.243c0 0.552-0.448 1-1 1s-1-0.448-1-1v-1.243c0-2.16-1.756-3.915-3.915-3.915h-6.5c-2.156 0-3.911 1.755-3.911 3.915v14.839c0 2.159 1.755 3.913 3.911 3.913h6.515c2.149 0 3.9-1.749 3.9-3.899v-1.257c0-0.552 0.448-1 1-1s1 0.448 1 1v1.257c0 3.253-2.648 5.899-5.9 5.899z"></path>
            <path
                d="M29.049 17h-16.055c-0.552 0-1-0.448-1-1s0.448-1 1-1h16.055c0.552 0 1 0.448 1 1s-0.448 1-1 1z"></path>
            <path
                d="M25.146 20.888c-0.256 0-0.513-0.097-0.708-0.295-0.389-0.392-0.388-1.024 0.003-1.413l3.192-3.18-3.192-3.179c-0.391-0.389-0.393-1.021-0.003-1.413 0.389-0.392 1.021-0.392 1.413-0.003l3.904 3.887c0.189 0.187 0.295 0.443 0.295 0.708s-0.105 0.521-0.295 0.708l-3.904 3.888c-0.195 0.195-0.451 0.292-0.705 0.292z"></path>
        </symbol>
        <symbol id="icon-menu" width="46" height="32" viewBox="0 0 46 32" x="576" y="0">
            <path fill="none" stroke-linejoin="miter" stroke-linecap="round" stroke-miterlimit="4"
                stroke-width="3.4286" stroke="#000" d="M1.714 2.857h42.286"></path>
            <path fill="none" stroke-linejoin="miter" stroke-linecap="round" stroke-miterlimit="4"
                stroke-width="3.4286" stroke="#000" d="M1.714 16.571h42.286"></path>
            <path fill="none" stroke-linejoin="miter" stroke-linecap="round" stroke-miterlimit="4"
                stroke-width="3.4286" stroke="#000" d="M1.714 30.286h42.286"></path>
        </symbol>
        <symbol id="icon-message" width="34" height="32" viewBox="0 0 34 32" x="672" y="0">
            <path fill="none" stroke-linejoin="round" stroke-linecap="round" stroke-miterlimit="4"
                stroke-width="2.2857" stroke="#000"
                d="M25.756 11.393l-6.771 5.506c-1.279 1.015-3.079 1.015-4.358 0l-6.828-5.506"></path>
            <path fill="none" stroke-linejoin="round" stroke-linecap="round" stroke-miterlimit="4"
                stroke-width="2.2857" stroke="#000"
                d="M24.242 29.905c4.634 0.013 7.758-3.795 7.758-8.475v-10.466c0-4.68-3.123-8.488-7.758-8.488h-14.96c-4.634 0-7.758 3.808-7.758 8.488v10.466c0 4.68 3.123 8.488 7.758 8.475h14.96z"></path>
        </symbol>
        <symbol id="icon-notification" width="32" height="32" viewBox="0 0 32 32" x="0" y="48">
            <path fill="none" stroke-linejoin="round" stroke-linecap="round" stroke-miterlimit="4"
                stroke-width="2" stroke="#000"
                d="M16 23.797c7.519 0 10.997-0.965 11.333-4.836 0-3.869-2.425-3.62-2.425-8.367 0-3.708-3.515-7.927-8.908-7.927s-8.908 4.219-8.908 7.927c0 4.747-2.425 4.498-2.425 8.367 0.337 3.886 3.816 4.836 11.333 4.836z"></path>
            <path fill="none" stroke-linejoin="round" stroke-linecap="round" stroke-miterlimit="4"
                stroke-width="2" stroke="#000" d="M19.185 27.81c-1.819 2.020-4.656 2.044-6.492 0"></path>
        </symbol>
        <symbol id="icon-paperclip" width="30" height="32" viewBox="0 0 30 32" x="48" y="48">
            <path fill="none" stroke-linejoin="round" stroke-linecap="round" stroke-miterlimit="4"
                stroke-width="1.8824" stroke="#000"
                d="M18.823 10.747l-9.801 9.964c-0.353 0.353-0.551 0.832-0.551 1.331s0.198 0.978 0.551 1.331c0.353 0.353 0.832 0.551 1.331 0.551s0.978-0.198 1.331-0.551l11.683-11.846c0.35-0.35 0.627-0.765 0.816-1.221s0.287-0.946 0.287-1.441c0-0.494-0.097-0.984-0.287-1.441s-0.466-0.872-0.816-1.221c-0.35-0.35-0.764-0.627-1.221-0.816s-0.946-0.287-1.441-0.287c-0.494 0-0.984 0.097-1.441 0.287s-0.872 0.466-1.221 0.816l-11.683 11.846c-1.059 1.059-1.654 2.495-1.654 3.993s0.595 2.934 1.654 3.993 2.495 1.654 3.993 1.654c1.498 0 2.934-0.595 3.993-1.654l9.653-9.641"></path>
        </symbol>
        <symbol id="icon-profile" viewBox="0 0 31 32">
            <path fill="none" stroke-linejoin="round" stroke-linecap="round" stroke-miterlimit="4"
                stroke-width="1.92" stroke="#000"
                d="M15.34 20.444c-4.95 0-9.178 0.748-9.178 3.746s4.201 3.773 9.178 3.773c4.951 0 9.177-0.75 9.177-3.746s-4.2-3.773-9.177-3.773z"></path>
            <path fill="none" stroke-linejoin="round" stroke-linecap="round" stroke-miterlimit="4"
                stroke-width="1.8286" stroke="#000"
                d="M15.341 16.168c3.249 0 5.882-2.634 5.882-5.883s-2.633-5.882-5.882-5.882c-3.249 0-5.883 2.633-5.883 5.882-0.011 3.238 2.605 5.872 5.842 5.883h0.041z"></path>
        </symbol>
        <symbol id="icon-search" width="32" height="32" viewBox="0 0 32 32" x="144" y="48">
            <path fill="none" stroke-linejoin="round" stroke-linecap="round" stroke-miterlimit="4"
                stroke-width="2" stroke="#000"
                d="M27.674 15.689c0 6.619-5.366 11.985-11.985 11.985s-11.985-5.366-11.985-11.985c0-6.619 5.366-11.985 11.985-11.985s11.985 5.366 11.985 11.985z"></path>
            <path fill="none" stroke-linejoin="round" stroke-linecap="round" stroke-miterlimit="4"
                stroke-width="2" stroke="#000" d="M24.024 24.647l4.699 4.687"></path>
        </symbol>
        <symbol id="icon-setting" width="31" height="32" viewBox="0 0 31 32" x="192" y="48">
            <path fill="none" stroke-linejoin="round" stroke-linecap="round" stroke-miterlimit="4"
                stroke-width="1.92" stroke="#000"
                d="M26.633 10.559l-0.797-1.383c-0.674-1.17-2.168-1.573-3.339-0.902v0c-0.558 0.329-1.223 0.422-1.849 0.259s-1.162-0.568-1.49-1.126c-0.211-0.355-0.324-0.759-0.328-1.172v0c0.019-0.662-0.231-1.303-0.692-1.777s-1.095-0.742-1.757-0.742h-1.605c-0.648 0-1.27 0.258-1.727 0.718s-0.713 1.082-0.71 1.731v0c-0.019 1.339-1.11 2.414-2.449 2.414-0.413-0.004-0.817-0.117-1.172-0.328v0c-1.171-0.671-2.665-0.268-3.339 0.902l-0.855 1.406c-0.673 1.168-0.275 2.661 0.89 3.339v0c0.758 0.437 1.224 1.246 1.224 2.121s-0.467 1.683-1.224 2.121v0c-1.164 0.673-1.563 2.163-0.89 3.327v0l0.808 1.394c0.316 0.57 0.846 0.99 1.472 1.168s1.299 0.099 1.867-0.219v0c0.559-0.326 1.224-0.415 1.849-0.248s1.157 0.577 1.478 1.139c0.211 0.355 0.324 0.759 0.328 1.172v0c0 1.352 1.096 2.449 2.449 2.449h1.605c1.348 0 2.442-1.089 2.449-2.437v0c-0.003-0.65 0.254-1.275 0.714-1.735s1.085-0.717 1.735-0.714c0.412 0.011 0.814 0.124 1.172 0.328v0c1.168 0.673 2.661 0.275 3.339-0.89v0l0.844-1.406c0.327-0.56 0.416-1.228 0.249-1.855s-0.577-1.161-1.139-1.484v0c-0.562-0.323-0.972-0.858-1.139-1.484s-0.077-1.294 0.249-1.855c0.212-0.371 0.52-0.678 0.89-0.89v0c1.159-0.678 1.556-2.162 0.89-3.327v0-0.012z"></path>
            <path fill="none" stroke-linejoin="round" stroke-linecap="round" stroke-miterlimit="4"
                stroke-width="1.92" stroke="#000"
                d="M18.958 16.018c0 1.864-1.511 3.374-3.374 3.374s-3.374-1.511-3.374-3.374c0-1.864 1.511-3.374 3.374-3.374s3.374 1.511 3.374 3.374z"></path>
        </symbol>
        <symbol id="icon-time-circle" width="31" height="32" viewBox="0 0 31 32" x="240" y="48">
            <path fill="none" stroke-linejoin="round" stroke-linecap="round" stroke-miterlimit="4"
                stroke-width="1.92" stroke="#000"
                d="M27.2 16.161c0 6.54-5.3 11.84-11.84 11.84s-11.84-5.3-11.84-11.84c0-6.54 5.3-11.84 11.84-11.84s11.84 5.3 11.84 11.84z"></path>
            <path fill="none" stroke-linejoin="round" stroke-linecap="round" stroke-miterlimit="4"
                stroke-width="1.92" stroke="#000" d="M19.752 19.927l-4.826-2.879v-6.204"></path>
        </symbol>
    </defs>
</svg>