<!-- <?xml version="1.0" encoding="utf-8"?> -->
<!-- Generated by IcoMoon.io -->
<svg aria-hidden="true" style="position:absolute;width:0;height:0;overflow:hidden"
    xmlns="http://www.w3.org/2000/svg" viewBox="0 0 752 80">
    <defs>
        <symbol id="icon-plus" viewBox="0 0 32 32">
            <path fill="none" stroke-linejoin="round" stroke-linecap="round" stroke-miterlimit="4"
                stroke-width="4" stroke="#000" d="M5 16h22"></path>
            <path fill="none" stroke-linejoin="round" stroke-linecap="round" stroke-miterlimit="4"
                stroke-width="4" stroke="#000" d="M16 5v22"></path>
        </symbol>
        <symbol id="icon-more-horizontal" viewBox="0 0 32 32">
            <path fill="none" stroke-linejoin="round" stroke-linecap="round" stroke-miterlimit="4"
                stroke-width="2.56" stroke="#000"
                d="M15.893 17.548c0.707 0 1.28-0.573 1.28-1.28s-0.573-1.28-1.28-1.28c-0.707 0-1.28 0.573-1.28 1.28s0.573 1.28 1.28 1.28z"></path>
            <path fill="none" stroke-linejoin="round" stroke-linecap="round" stroke-miterlimit="4"
                stroke-width="2.56" stroke="#000"
                d="M24.854 17.548c0.707 0 1.28-0.573 1.28-1.28s-0.573-1.28-1.28-1.28c-0.707 0-1.28 0.573-1.28 1.28s0.573 1.28 1.28 1.28z"></path>
            <path fill="none" stroke-linejoin="round" stroke-linecap="round" stroke-miterlimit="4"
                stroke-width="2.56" stroke="#000"
                d="M6.934 17.548c0.707 0 1.28-0.573 1.28-1.28s-0.573-1.28-1.28-1.28-1.28 0.573-1.28 1.28c0 0.707 0.573 1.28 1.28 1.28z"></path>
        </symbol>
        <symbol id="icon-user" viewBox="0 0 28 28" fill="none" xmlns="http://www.w3.org/2000/svg">
            <path
                d="M20.6907 12.7464C22.2759 12.5236 23.4964 11.1645 23.4998 9.51795C23.4998 7.89523 22.3168 6.54977 20.7657 6.29523"
                stroke-width="1.5" stroke-linecap="round" stroke-linejoin="round" />
            <path
                d="M22.7825 16.5573C24.3178 16.7868 25.3893 17.3243 25.3893 18.4323C25.3893 19.1948 24.8848 19.6902 24.0689 20.0016"
                stroke-width="1.5" stroke-linecap="round" stroke-linejoin="round" />
            <path fill-rule="evenodd" clip-rule="evenodd"
                d="M13.8714 17.0272C10.2191 17.0272 7.09979 17.5806 7.09979 19.7908C7.09979 21.9999 10.1998 22.5692 13.8714 22.5692C17.5237 22.5692 20.6418 22.0215 20.6418 19.8101C20.6418 17.5988 17.543 17.0272 13.8714 17.0272Z"
                stroke-width="1.5" stroke-linecap="round" stroke-linejoin="round" />
            <path fill-rule="evenodd" clip-rule="evenodd"
                d="M13.8714 13.8727C16.2679 13.8727 18.2111 11.9307 18.2111 9.53295C18.2111 7.13636 16.2679 5.19318 13.8714 5.19318C11.4748 5.19318 9.53159 7.13636 9.53159 9.53295C9.5225 11.9216 11.4509 13.8648 13.8395 13.8727H13.8714Z"
                stroke-width="1.5" stroke-linecap="round" stroke-linejoin="round" />
            <path
                d="M7.05103 12.7464C5.46467 12.5236 4.24535 11.1645 4.24194 9.51795C4.24194 7.89523 5.4249 6.54977 6.97603 6.29523"
                stroke-width="1.5" stroke-linecap="round" stroke-linejoin="round" />
            <path
                d="M4.95911 16.5573C3.42389 16.7868 2.35229 17.3243 2.35229 18.4323C2.35229 19.1948 2.85684 19.6902 3.67275 20.0016"
                stroke-width="1.5" stroke-linecap="round" stroke-linejoin="round" />
        </symbol>
        <symbol id="icon-arrow-down" width="32" height="32" viewBox="0 0 32 32">
            <path fill="none" stroke-linejoin="round" stroke-linecap="round" stroke-miterlimit="4"
                stroke-width="2" stroke="#000" d="M25.333 11.333l-9.333 9.333-9.333-9.333"></path>
        </symbol>
        <symbol id="icon-calendar" width="29" height="32" viewBox="0 0 29 32">
            <path fill="none" stroke-linejoin="round" stroke-linecap="round" stroke-miterlimit="4"
                stroke-width="2.1818" stroke="#000" d="M1.589 12.224h25.926"></path>
            <path fill="none" stroke-linejoin="round" stroke-linecap="round" stroke-miterlimit="4"
                stroke-width="2.1818" stroke="#000" d="M21.007 17.905h0.014"></path>
            <path fill="none" stroke-linejoin="round" stroke-linecap="round" stroke-miterlimit="4"
                stroke-width="2.1818" stroke="#000" d="M14.552 17.905h0.014"></path>
            <path fill="none" stroke-linejoin="round" stroke-linecap="round" stroke-miterlimit="4"
                stroke-width="2.1818" stroke="#000" d="M8.084 17.905h0.013"></path>
            <path fill="none" stroke-linejoin="round" stroke-linecap="round" stroke-miterlimit="4"
                stroke-width="2.1818" stroke="#000" d="M21.007 23.558h0.014"></path>
            <path fill="none" stroke-linejoin="round" stroke-linecap="round" stroke-miterlimit="4"
                stroke-width="2.1818" stroke="#000" d="M14.552 23.558h0.014"></path>
            <path fill="none" stroke-linejoin="round" stroke-linecap="round" stroke-miterlimit="4"
                stroke-width="2.1818" stroke="#000" d="M8.084 23.558h0.013"></path>
            <path fill="none" stroke-linejoin="round" stroke-linecap="round" stroke-miterlimit="4"
                stroke-width="2.1818" stroke="#000" d="M20.427 1.455v4.787"></path>
            <path fill="none" stroke-linejoin="round" stroke-linecap="round" stroke-miterlimit="4"
                stroke-width="2.1818" stroke="#000" d="M8.677 1.455v4.787"></path>
            <path fill="none" stroke-linejoin="round" stroke-linecap="round" stroke-miterlimit="4"
                stroke-width="2.1818" stroke="#000"
                d="M20.71 3.752h-12.316c-4.272 0-6.94 2.38-6.94 6.753v13.163c0 4.443 2.668 6.877 6.94 6.877h12.303c4.285 0 6.94-2.393 6.94-6.767v-13.273c0.013-4.374-2.641-6.753-6.926-6.753z"></path>
        </symbol>
        <symbol id="icon-chat" viewBox="0 0 32 32">
            <path
                d="M8.687 27.363c0.825 0 1.603 0.313 2.426 0.644 5.045 2.333 11.011 1.271 14.898-2.614 5.129-5.131 5.129-13.478 0-18.607-2.483-2.483-5.786-3.85-9.301-3.85-3.517 0-6.821 1.368-9.303 3.851-3.888 3.886-4.947 9.852-2.635 14.848 0.333 0.823 0.654 1.626 0.654 2.459 0 0.832-0.286 1.67-0.538 2.409-0.208 0.609-0.522 1.527-0.32 1.729 0.198 0.205 1.122-0.118 1.732-0.327 0.732-0.25 1.563-0.538 2.387-0.543zM16.675 31.372c-2.173 0-4.361-0.46-6.407-1.407-0.603-0.242-1.168-0.469-1.573-0.469-0.466 0.003-1.094 0.219-1.7 0.428-1.243 0.427-2.79 0.959-3.935-0.182-1.141-1.142-0.614-2.685-0.191-3.927 0.209-0.612 0.424-1.243 0.424-1.721 0-0.393-0.189-0.893-0.479-1.614-2.664-5.753-1.432-12.686 3.086-17.202 2.884-2.886 6.723-4.476 10.809-4.476s7.926 1.589 10.81 4.474c5.962 5.962 5.962 15.661 0 21.624-2.923 2.924-6.858 4.471-10.844 4.471z"></path>
            <path
                d="M22.324 18.101c-0.785 0-1.428-0.636-1.428-1.422s0.63-1.422 1.415-1.422h0.013c0.785 0 1.422 0.636 1.422 1.422s-0.637 1.422-1.422 1.422z"></path>
            <path
                d="M16.622 18.101c-0.785 0-1.428-0.636-1.428-1.422s0.629-1.422 1.415-1.422h0.013c0.785 0 1.422 0.636 1.422 1.422s-0.637 1.422-1.422 1.422z"></path>
            <path
                d="M10.92 18.101c-0.785 0-1.428-0.636-1.428-1.422s0.63-1.422 1.415-1.422h0.013c0.785 0 1.422 0.636 1.422 1.422s-0.637 1.422-1.422 1.422z"></path>
        </symbol>
        <symbol id="icon-document" viewBox="0 0 31 32">
            <path fill="none" stroke-linejoin="round" stroke-linecap="round" stroke-miterlimit="4"
                stroke-width="1.92" d="M20.117 21.566h-9.242"></path>
            <path fill="none" stroke-linejoin="round" stroke-linecap="round" stroke-miterlimit="4"
                stroke-width="1.92" d="M20.117 16.208h-9.242"></path>
            <path fill="none" stroke-linejoin="round" stroke-linecap="round" stroke-miterlimit="4"
                stroke-width="1.92" d="M14.402 10.861h-3.526"></path>
            <path fill="none" stroke-linejoin="round" stroke-linecap="round" stroke-miterlimit="4"
                stroke-width="1.92"
                d="M20.363 4.32c0 0-9.827 0.005-9.842 0.005-3.533 0.022-5.72 2.346-5.72 5.892v11.771c0 3.564 2.204 5.897 5.768 5.897 0 0 9.825-0.004 9.842-0.004 3.533-0.022 5.722-2.348 5.722-5.893v-11.771c0-3.564-2.205-5.897-5.769-5.897z"></path>
        </symbol>
        <symbol id="icon-edit" width="32" height="32" viewBox="0 0 32 32" x="336" y="0">
            <path fill="none" stroke-linejoin="round" stroke-linecap="round" stroke-miterlimit="4"
                stroke-width="2.4" stroke="#000" d="M18.33 27.257h9.67"></path>
            <path fill="none" stroke-linejoin="round" stroke-linecap="round" stroke-miterlimit="4"
                stroke-width="2.4" stroke="#000"
                d="M17.040 5.060c1.034-1.236 2.893-1.417 4.155-0.404 0.070 0.055 2.311 1.796 2.311 1.796 1.386 0.838 1.817 2.619 0.96 3.978-0.046 0.073-12.717 15.923-12.717 15.923-0.422 0.526-1.062 0.836-1.745 0.844l-4.853 0.061-1.093-4.628c-0.153-0.651 0-1.334 0.422-1.86l12.56-15.71z"></path>
            <path fill="none" stroke-linejoin="round" stroke-linecap="round" stroke-miterlimit="4"
                stroke-width="2.4" stroke="#000" d="M14.694 8.001l7.27 5.583"></path>
        </symbol>
        <symbol id="icon-filter" width="31" height="32" viewBox="0 0 31 32">
            <path fill="none" stroke-linejoin="round" stroke-linecap="round" stroke-miterlimit="4"
                stroke-width="1.92" stroke="#000" d="M13.223 21.879h-8.065"></path>
            <path fill="none" stroke-linejoin="round" stroke-linecap="round" stroke-miterlimit="4"
                stroke-width="1.92" stroke="#000" d="M16.82 9.473h8.065"></path>
            <path fill="none" stroke-linejoin="round" stroke-linecap="round" stroke-miterlimit="4"
                stroke-width="1.92" stroke="#000"
                d="M11.17 9.403c0-1.658-1.354-3.003-3.025-3.003s-3.025 1.345-3.025 3.003c0 1.658 1.354 3.003 3.025 3.003s3.025-1.345 3.025-3.003z"></path>
            <path fill="none" stroke-linejoin="round" stroke-linecap="round" stroke-miterlimit="4"
                stroke-width="1.92" stroke="#000"
                d="M25.6 21.829c0-1.658-1.353-3.003-3.024-3.003-1.671 0-3.026 1.345-3.026 3.003s1.355 3.003 3.026 3.003c1.67 0 3.024-1.345 3.024-3.003z"></path>
        </symbol>
        <symbol id='icon-home' viewBox="0 0 24 25" fill="none" xmlns="http://www.w3.org/2000/svg">
            <path
                d="M9.15722 21.3968V18.3301C9.1572 17.55 9.79312 16.9162 10.581 16.911H13.4671C14.2587 16.911 14.9005 17.5463 14.9005 18.3301V18.3301V21.4063C14.9003 22.0686 15.4343 22.6099 16.103 22.6254H18.0271C19.9451 22.6254 21.5 21.0861 21.5 19.1872V19.1872V10.4632C21.4898 9.71622 21.1355 9.01475 20.538 8.55843L13.9577 3.3107C12.8049 2.39696 11.1662 2.39696 10.0134 3.3107L3.46203 8.56795C2.86226 9.02242 2.50739 9.72506 2.5 10.4728V19.1872C2.5 21.0861 4.05488 22.6254 5.97291 22.6254H7.89696C8.58235 22.6254 9.13797 22.0753 9.13797 21.3968V21.3968"
                stroke-width="1.5"
                stroke-linecap="round"
                stroke-linejoin="round"
            />
        </symbol>
        <symbol id="icon-logo" viewBox="0 0 34 32">
            <path
                d="M26.23 16.757c-4.027 0-7.29 3.264-7.29 7.29s3.264 7.291 7.29 7.291c4.026 0 7.29-3.264 7.29-7.291s-3.264-7.29-7.29-7.29zM7.29 16.758c-4.026 0-7.29 3.263-7.29 7.29s3.264 7.29 7.29 7.29c4.026 0 7.29-3.264 7.29-7.29s-3.264-7.29-7.29-7.29zM24.050 7.645c0 4.026-3.264 7.291-7.29 7.291s-7.29-3.265-7.29-7.291c0-4.026 3.264-7.29 7.29-7.29s7.289 3.264 7.289 7.29h0z"></path>
        </symbol>
        <symbol id="icon-logout" viewBox="0 0 32 32">
            <path
                d="M15.092 29.333h-6.515c-3.259 0-5.911-2.652-5.911-5.913v-14.839c0-3.261 2.652-5.915 5.911-5.915h6.5c3.261 0 5.915 2.653 5.915 5.915v1.243c0 0.552-0.448 1-1 1s-1-0.448-1-1v-1.243c0-2.16-1.756-3.915-3.915-3.915h-6.5c-2.156 0-3.911 1.755-3.911 3.915v14.839c0 2.159 1.755 3.913 3.911 3.913h6.515c2.149 0 3.9-1.749 3.9-3.899v-1.257c0-0.552 0.448-1 1-1s1 0.448 1 1v1.257c0 3.253-2.648 5.899-5.9 5.899z"></path>
            <path
                d="M29.049 17h-16.055c-0.552 0-1-0.448-1-1s0.448-1 1-1h16.055c0.552 0 1 0.448 1 1s-0.448 1-1 1z"></path>
            <path
                d="M25.146 20.888c-0.256 0-0.513-0.097-0.708-0.295-0.389-0.392-0.388-1.024 0.003-1.413l3.192-3.18-3.192-3.179c-0.391-0.389-0.393-1.021-0.003-1.413 0.389-0.392 1.021-0.392 1.413-0.003l3.904 3.887c0.189 0.187 0.295 0.443 0.295 0.708s-0.105 0.521-0.295 0.708l-3.904 3.888c-0.195 0.195-0.451 0.292-0.705 0.292z"></path>
        </symbol>

        <symbol id="icon-menu" width="46" height="32" viewBox="0 0 46 32" x="576" y="0">
            <path fill="none" stroke-linejoin="miter" stroke-linecap="round" stroke-miterlimit="4"
                stroke-width="3.4286" stroke="#000" d="M1.714 2.857h42.286"></path>
            <path fill="none" stroke-linejoin="miter" stroke-linecap="round" stroke-miterlimit="4"
                stroke-width="3.4286" stroke="#000" d="M1.714 16.571h42.286"></path>
            <path fill="none" stroke-linejoin="miter" stroke-linecap="round" stroke-miterlimit="4"
                stroke-width="3.4286" stroke="#000" d="M1.714 30.286h42.286"></path>
        </symbol>
        <symbol id="icon-message" width="34" height="32" viewBox="0 0 34 32" x="672" y="0">
            <path fill="none" stroke-linejoin="round" stroke-linecap="round" stroke-miterlimit="4"
                stroke-width="2.2857" stroke="#000"
                d="M25.756 11.393l-6.771 5.506c-1.279 1.015-3.079 1.015-4.358 0l-6.828-5.506"></path>
            <path fill="none" stroke-linejoin="round" stroke-linecap="round" stroke-miterlimit="4"
                stroke-width="2.2857" stroke="#000"
                d="M24.242 29.905c4.634 0.013 7.758-3.795 7.758-8.475v-10.466c0-4.68-3.123-8.488-7.758-8.488h-14.96c-4.634 0-7.758 3.808-7.758 8.488v10.466c0 4.68 3.123 8.488 7.758 8.475h14.96z"></path>
        </symbol>
        <symbol id="icon-notification" width="32" height="32" viewBox="0 0 32 32" x="0" y="48">
            <path fill="none" stroke-linejoin="round" stroke-linecap="round" stroke-miterlimit="4"
                stroke-width="2" stroke="#000"
                d="M16 23.797c7.519 0 10.997-0.965 11.333-4.836 0-3.869-2.425-3.62-2.425-8.367 0-3.708-3.515-7.927-8.908-7.927s-8.908 4.219-8.908 7.927c0 4.747-2.425 4.498-2.425 8.367 0.337 3.886 3.816 4.836 11.333 4.836z"></path>
            <path fill="none" stroke-linejoin="round" stroke-linecap="round" stroke-miterlimit="4"
                stroke-width="2" stroke="#000" d="M19.185 27.81c-1.819 2.020-4.656 2.044-6.492 0"></path>
        </symbol>
        <symbol id="icon-paperclip" width="30" height="32" viewBox="0 0 30 32" x="48" y="48">
            <path fill="none" stroke-linejoin="round" stroke-linecap="round" stroke-miterlimit="4"
                stroke-width="1.8824" stroke="#000"
                d="M18.823 10.747l-9.801 9.964c-0.353 0.353-0.551 0.832-0.551 1.331s0.198 0.978 0.551 1.331c0.353 0.353 0.832 0.551 1.331 0.551s0.978-0.198 1.331-0.551l11.683-11.846c0.35-0.35 0.627-0.765 0.816-1.221s0.287-0.946 0.287-1.441c0-0.494-0.097-0.984-0.287-1.441s-0.466-0.872-0.816-1.221c-0.35-0.35-0.764-0.627-1.221-0.816s-0.946-0.287-1.441-0.287c-0.494 0-0.984 0.097-1.441 0.287s-0.872 0.466-1.221 0.816l-11.683 11.846c-1.059 1.059-1.654 2.495-1.654 3.993s0.595 2.934 1.654 3.993 2.495 1.654 3.993 1.654c1.498 0 2.934-0.595 3.993-1.654l9.653-9.641"></path>
        </symbol>
        <symbol id='icon-profile' viewBox="0 0 24 25" fill="none" xmlns="http://www.w3.org/2000/svg">
            <path fill-rule="evenodd" clip-rule="evenodd"
                d="M11.9847 15.9716C8.11713 15.9716 4.81427 16.5563 4.81427 18.8983C4.81427 21.2402 8.09617 21.8459 11.9847 21.8459C15.8524 21.8459 19.1543 21.2602 19.1543 18.9192C19.1543 16.5783 15.8733 15.9716 11.9847 15.9716Z"
                stroke-width="1.5" stroke-linecap="round" stroke-linejoin="round" />
            <path fill-rule="evenodd" clip-rule="evenodd"
                d="M11.9848 12.6313C14.5229 12.6313 16.58 10.5732 16.58 8.03512C16.58 5.49702 14.5229 3.43988 11.9848 3.43988C9.44667 3.43988 7.38858 5.49702 7.38858 8.03512C7.38001 10.5646 9.42382 12.6227 11.9524 12.6313H11.9848Z"
                stroke-width="1.42857" stroke-linecap="round" stroke-linejoin="round" />
        </symbol>
        <symbol id="icon-search" width="32" height="32" viewBox="0 0 32 32" x="144" y="48">
            <path fill="none" stroke-linejoin="round" stroke-linecap="round" stroke-miterlimit="4"
                stroke-width="2" stroke="#000"
                d="M27.674 15.689c0 6.619-5.366 11.985-11.985 11.985s-11.985-5.366-11.985-11.985c0-6.619 5.366-11.985 11.985-11.985s11.985 5.366 11.985 11.985z"></path>
            <path fill="none" stroke-linejoin="round" stroke-linecap="round" stroke-miterlimit="4"
                stroke-width="2" stroke="#000" d="M24.024 24.647l4.699 4.687"></path>
        </symbol>
        <symbol id="icon-setting" width="31" height="32" viewBox="0 0 31 32" x="192" y="48">
            <path fill="none" stroke-linejoin="round" stroke-linecap="round" stroke-miterlimit="4"
                stroke-width="1.92" stroke="#000"
                d="M26.633 10.559l-0.797-1.383c-0.674-1.17-2.168-1.573-3.339-0.902v0c-0.558 0.329-1.223 0.422-1.849 0.259s-1.162-0.568-1.49-1.126c-0.211-0.355-0.324-0.759-0.328-1.172v0c0.019-0.662-0.231-1.303-0.692-1.777s-1.095-0.742-1.757-0.742h-1.605c-0.648 0-1.27 0.258-1.727 0.718s-0.713 1.082-0.71 1.731v0c-0.019 1.339-1.11 2.414-2.449 2.414-0.413-0.004-0.817-0.117-1.172-0.328v0c-1.171-0.671-2.665-0.268-3.339 0.902l-0.855 1.406c-0.673 1.168-0.275 2.661 0.89 3.339v0c0.758 0.437 1.224 1.246 1.224 2.121s-0.467 1.683-1.224 2.121v0c-1.164 0.673-1.563 2.163-0.89 3.327v0l0.808 1.394c0.316 0.57 0.846 0.99 1.472 1.168s1.299 0.099 1.867-0.219v0c0.559-0.326 1.224-0.415 1.849-0.248s1.157 0.577 1.478 1.139c0.211 0.355 0.324 0.759 0.328 1.172v0c0 1.352 1.096 2.449 2.449 2.449h1.605c1.348 0 2.442-1.089 2.449-2.437v0c-0.003-0.65 0.254-1.275 0.714-1.735s1.085-0.717 1.735-0.714c0.412 0.011 0.814 0.124 1.172 0.328v0c1.168 0.673 2.661 0.275 3.339-0.89v0l0.844-1.406c0.327-0.56 0.416-1.228 0.249-1.855s-0.577-1.161-1.139-1.484v0c-0.562-0.323-0.972-0.858-1.139-1.484s-0.077-1.294 0.249-1.855c0.212-0.371 0.52-0.678 0.89-0.89v0c1.159-0.678 1.556-2.162 0.89-3.327v0-0.012z"></path>
            <path fill="none" stroke-linejoin="round" stroke-linecap="round" stroke-miterlimit="4"
                stroke-width="1.92" stroke="#000"
                d="M18.958 16.018c0 1.864-1.511 3.374-3.374 3.374s-3.374-1.511-3.374-3.374c0-1.864 1.511-3.374 3.374-3.374s3.374 1.511 3.374 3.374z"></path>
        </symbol>
        <symbol id="icon-time-circle" width="31" height="32" viewBox="0 0 31 32" x="240" y="48">
            <path fill="none" stroke-linejoin="round" stroke-linecap="round" stroke-miterlimit="4"
                stroke-width="1.92" stroke="#000"
                d="M27.2 16.161c0 6.54-5.3 11.84-11.84 11.84s-11.84-5.3-11.84-11.84c0-6.54 5.3-11.84 11.84-11.84s11.84 5.3 11.84 11.84z"></path>
            <path fill="none" stroke-linejoin="round" stroke-linecap="round" stroke-miterlimit="4"
                stroke-width="1.92" stroke="#000" d="M19.752 19.927l-4.826-2.879v-6.204"></path>
        </symbol>
        <symbol id='icon-triangle' viewBox="0 0 20 40">
            <path
                d="M1.95629 15H18.0375C19.15 15 19.7063 16.6797 18.9188 17.6641L10.8813 27.7187C10.3938 28.3281 9.60004 28.3281 9.11254 27.7187L1.07504 17.6641C0.287544 16.6797 0.843794 15 1.95629 15Z"
            />
        </symbol>
        <symbol id="icon-logo-2" viewBox="0 0 52 52" fill="none">
            <g clip-path="url(#clip0_5_25)">
                <path
                    d="M46.7188 31.4031C50.2215 27.3406 51.9639 23.2781 52 19.6117C52.0722 12.9594 46.6375 7.60703 36.7069 5.90078C25.0882 3.9 10.6618 7.475 0 14.2695C4.69444 11.5781 9.98472 9.37422 15.4104 8.35859C22.1361 6.27656 29.2229 5.7789 35.3889 6.85547C49.1563 9.27265 53.1556 19.8047 44.3083 30.3875C43.3875 31.4844 42.3222 32.5305 41.1486 33.4953L27.5257 10.5016L10.3549 39.4977C4.43264 36.5117 3.44861 30.3367 8.63056 24.1414C10.5083 21.8867 12.991 19.8859 15.8076 18.2406C17.6132 17.0016 19.3917 15.9453 21.4049 15.1227C15.5278 17.1844 10.3278 20.4953 6.81597 24.5578C4.31528 27.4625 3.07847 30.357 3.05139 32.9773C3.00625 36.5422 5.16389 39.5891 9.22639 41.407L6.11181 46.6578H15.284L17.2701 43.1641C19.2743 43.2656 21.3597 43.1641 23.4632 42.8898L21.4049 46.6578H33.6375L30.6944 41.2648C32.3736 40.7266 34.0257 40.0969 35.6146 39.3656L39.7583 46.6578H48.9306L42.3042 35.4453C43.9743 34.2164 45.4639 32.8555 46.7188 31.4031ZM29.7826 39.5789L27.5257 35.4555L24.5736 40.8687C22.4611 41.2242 20.3576 41.3867 18.3264 41.3156L27.5257 25.1367L34.6306 37.6289C33.0778 38.3805 31.4438 39.0406 29.7826 39.5789Z"
                    fill="white" />
            </g>
            <defs>
                <clipPath id="clip0_5_25">
                    <rect width="52" height="52" fill="white" />
                </clipPath>
            </defs>
        </symbol>
        <symbol id="icon-eye" viewBox="0 0 30 22">
            <g clip-path="url(#clip0_5_27)">
                <path
                    d="M15.0005 17.1872C11.445 17.1872 8.56691 14.6645 8.30207 11.4676L3.38488 7.98411C2.73848 8.72747 2.14363 9.51337 1.66363 10.3727C1.5564 10.5672 1.50053 10.782 1.50053 10.9999C1.50053 11.2177 1.5564 11.4326 1.66363 11.627C4.20566 16.1735 9.23816 19.2497 15.0005 19.2497C16.2619 19.2497 17.4788 19.0778 18.6516 18.8002L16.2193 17.075C15.8175 17.1461 15.4096 17.1837 15.0005 17.1872ZM29.7108 19.6836L24.5288 16.0124C26.1029 14.7963 27.3976 13.3055 28.3374 11.6266C28.4446 11.4321 28.5005 11.2173 28.5005 10.9994C28.5005 10.7816 28.4446 10.5668 28.3374 10.3723C25.7953 5.82579 20.7628 2.74966 15.0005 2.74966C12.5871 2.75234 10.213 3.30927 8.09488 4.36958L2.13145 0.14446C2.05368 0.0889903 1.96476 0.0481111 1.86975 0.024158C1.77474 0.000204936 1.67552 -0.00635244 1.57775 0.00486058C1.47997 0.0160736 1.38557 0.0448372 1.29993 0.0895078C1.21429 0.134178 1.13909 0.19388 1.07863 0.265202L0.158478 1.35102C0.0364145 1.49496 -0.0182812 1.67745 0.00642009 1.85835C0.0311214 2.03925 0.133197 2.20375 0.290196 2.31567L27.8696 21.8549C27.9473 21.9103 28.0363 21.9512 28.1313 21.9752C28.2263 21.9991 28.3255 22.0057 28.4233 21.9945C28.521 21.9832 28.6154 21.9545 28.7011 21.9098C28.7867 21.8651 28.8619 21.8054 28.9224 21.7341L29.843 20.6483C29.965 20.5043 30.0196 20.3218 29.9948 20.1409C29.9701 19.96 29.8679 19.7955 29.7108 19.6836ZM21.0989 13.5821L19.2568 12.2767C19.4119 11.8657 19.4942 11.4345 19.5005 10.9997C19.5097 10.363 19.3558 9.7332 19.0512 9.16091C18.7467 8.58863 18.3 8.0898 17.747 7.70448C17.194 7.31916 16.5501 7.0581 15.8671 6.94226C15.184 6.82643 14.4809 6.85905 13.8141 7.03751C14.0968 7.38861 14.2497 7.8133 14.2505 8.24966C14.2435 8.39486 14.2193 8.53894 14.1783 8.67934L10.7278 6.23485C11.9264 5.3167 13.4385 4.81321 15.0005 4.81216C15.8871 4.8117 16.765 4.97144 17.5842 5.28223C18.4034 5.59302 19.1477 6.04877 19.7746 6.62343C20.4015 7.19808 20.8986 7.88036 21.2377 8.63127C21.5767 9.38217 21.751 10.187 21.7505 10.9997C21.7505 11.9291 21.5025 12.7953 21.0989 13.5825V13.5821Z"
                />
            </g>
            <defs>
                <clipPath id="clip0_5_27">
                    <rect width="30" height="22" fill="white" />
                </clipPath>
            </defs>
        </symbol>
        <symbol id="icon-google" viewBox="0 0 29 30">
            <g clip-path="url(#clip0_4_3)">
                <path
                    d="M28.8966 15.3398C28.8966 23.6309 23.3505 29.5312 15.16 29.5312C7.30729 29.5312 0.965576 23.0391 0.965576 15C0.965576 6.96094 7.30729 0.46875 15.16 0.46875C18.9834 0.46875 22.2 1.9043 24.6783 4.27148L20.8149 8.07422C15.761 3.08203 6.36291 6.83203 6.36291 15C6.36291 20.0684 10.3179 24.1758 15.16 24.1758C20.7806 24.1758 22.8869 20.0508 23.2188 17.9121H15.16V12.9141H28.6734C28.805 13.6582 28.8966 14.373 28.8966 15.3398Z" />
            </g>
            <defs>
                <clipPath id="clip0_4_3">
                    <rect x="0.965576" width="27.931" height="30" rx="13.9655" fill="white" />
                </clipPath>
            </defs>
        </symbol>
        <symbol id='icon-facebook' viewBox="0 0 29 30">
            <g clip-path="url(#clip0_4_7)">
                <path
                    d="M27.667 15C27.667 6.97266 21.6116 0.46875 14.1379 0.46875C6.66413 0.46875 0.608765 6.97266 0.608765 15C0.608765 22.2527 5.55616 28.2645 12.0239 29.3555V19.2006H8.58711V15H12.0239V11.7984C12.0239 8.15684 14.0424 6.14531 17.1339 6.14531C18.6145 6.14531 20.1627 6.42891 20.1627 6.42891V10.0031H18.4563C16.776 10.0031 16.2518 11.1234 16.2518 12.2725V15H20.0039L19.4038 19.2006H16.2518V29.3555C22.7196 28.2645 27.667 22.2527 27.667 15Z" />
            </g>
            <defs>
                <clipPath id="clip0_4_7">
                    <rect x="0.172363" width="27.931" height="30" rx="13.9655" fill="white" />
                </clipPath>
            </defs>
        </symbol>
    </defs>
</svg>